<svg xmlns="http://www.w3.org/2000/svg" xmlns:xlink="http://www.w3.org/1999/xlink" width="118.044" height="148.699" viewBox="0 0 118.044 148.699">
  <defs>
    <clipPath id="clip-path">
      <path id="Path_238" data-name="Path 238" d="M52.677,127.585l1.637,1.817.286-3.538a3.725,3.725,0,0,0-1.922,1.722m3.142,3.965c0,.021-.016.038-.022.058a.781.781,0,0,1-.032.12c-.006.018-.019.032-.027.049l0,.006c-.015.03-.031.058-.049.086a.839.839,0,0,1-.081.1c-.01.011-.014.026-.025.036s-.018.01-.026.018a.6.6,0,0,1-.049.042.865.865,0,0,1-.151.09c-.022.01-.039.026-.061.034l-.023.008-.01,0a.837.837,0,0,1-.258.043l-.01,0h0c-.034,0-.069,0-.1-.006a.845.845,0,0,1-.09-.03.759.759,0,0,1-.127-.032c-.018-.007-.032-.018-.049-.026a.771.771,0,0,1-.118-.078.615.615,0,0,1-.084-.053l-2.1-1.954a3.714,3.714,0,1,0,4.487-4.366ZM31.125,107.564a2.515,2.515,0,0,0,.052.512l2.156,2.009a2.563,2.563,0,0,0,.334.022,2.532,2.532,0,0,0,.874-.154l-1.082-1.2-2.3-1.639a2.563,2.563,0,0,0-.04.453m3.838.35.877.973a2.544,2.544,0,0,0-.256-2.994ZM32,105.646l1.562,1.116.523-1.706a2.565,2.565,0,0,0-.418-.034,2.531,2.531,0,0,0-1.668.624m2.086-.59a2.542,2.542,0,0,1,1.5.837l1.942-6.331,2.8-9.119a2.354,2.354,0,0,1-1.387-1.2Zm6.24-14.612a2.362,2.362,0,0,0,.717.111,2.337,2.337,0,0,0,1.15-.3l-.93-.665-.553-.4ZM38.7,88.21a2.341,2.341,0,0,0,.242,1.038l.43-1.4-.3-.9A2.332,2.332,0,0,0,38.7,88.21m1.792-2.28.468,1.382,2.308,1.65a2.348,2.348,0,0,0-2.776-3.032m17.854,14.4,2.326-7.579.085-.276-3.386,19.945Zm-1.289-1.518-1.72-1.23L43.264,88.962a2.352,2.352,0,0,1-1.073,1.294L56.64,100.578,54.6,125.863a3.737,3.737,0,0,1,2.212-.16l7.342-43.238c-.08.008-.161.011-.242.011a2.531,2.531,0,0,1-1.654-.612ZM61.37,79.936a2.535,2.535,0,0,0,.886,1.929l.6-1.966-.632-1.867a2.536,2.536,0,0,0-.858,1.9M63.784,77.4l.751,2.219c0,.016,0,.034.008.05a.8.8,0,0,1,.018.106.819.819,0,0,1,0,.193c0,.02,0,.039,0,.06l-.414,2.438a2.541,2.541,0,0,0-.242-5.07c-.043,0-.085,0-.127,0M3.127,56.548a3.116,3.116,0,0,1-.55-.049L15.961,96.055c.006.015.018.029.023.044a.945.945,0,0,0,.051.1.834.834,0,0,0,.111.154c.014.014.022.035.037.05l36.141,33.669a3.726,3.726,0,0,1,.353-2.484l-16.838-18.7a2.551,2.551,0,0,1-1.3,1.066l1.877,2.083,5.162,5.733-8.247-7.683a2.544,2.544,0,0,1-2.156-2.009l-4.4-4.1,4.39,3.137A2.544,2.544,0,0,1,32,105.646l-3.726-2.662-10.81-7.723L4.286,56.326a3.118,3.118,0,0,1-1.159.222M0,53.421A3.128,3.128,0,0,0,2.577,56.5L1.551,53.47c-.006-.017,0-.034-.009-.052a.987.987,0,0,1-.018-.1.85.85,0,0,1,0-.2c0-.018,0-.036,0-.054l.431-2.541A3.129,3.129,0,0,0,0,53.421m3.226-.229,1.06,3.134a3.128,3.128,0,0,0-.215-5.887Zm22.649-6.025a2.318,2.318,0,0,1-.28-.018l13.467,39.8a2.347,2.347,0,0,1,1.425-1.019l-13.267-39.2a2.26,2.26,0,0,1-1.346.442m-2.27-2.27A2.27,2.27,0,0,0,25.6,47.15l-.464-1.372-1.517-1.083c-.006.067-.009.134-.009.2m3.113.343.5,1.484a2.27,2.27,0,0,0,.132-3.55Zm-2.333-2.056.992.709.388-1.264a2.263,2.263,0,0,0-1.38.555M49.68,40.605l-.118,0L62.228,78.032a2.534,2.534,0,0,1,1.555-.633L51.2,40.217a3.148,3.148,0,0,1-1.521.389m-3.164-3.164A3.164,3.164,0,0,0,49.563,40.6l-.939-2.775-1.946-1.39a3.176,3.176,0,0,0-.162,1M47.9,34.824l2,1.866c.015.014.022.034.036.05a.828.828,0,0,1,.111.151.842.842,0,0,1,.051.1.442.442,0,0,1,.022.043L51.2,40.217a3.165,3.165,0,1,0-3.3-5.392M8.72,20.667,7.745,32.755l-2.41,7.851ZM1.95,50.522a3.137,3.137,0,0,1,2.121-.083L9.033,34.277,23.615,44.694a2.261,2.261,0,0,1,.771-1.51L9.447,32.512l2.16-26.775h-.018a2.86,2.86,0,0,1-1.91-.729ZM11.607,5.737a2.849,2.849,0,0,0,1.576-.483l-1.41-1.566Zm21.019,18.6-8.119-9.014,14.8,13.789ZM13.183,5.254,31.125,25.176,25.766,42.629l.11,0a2.26,2.26,0,0,1,1.478.547l5.173-16.848L46.678,36.438A3.172,3.172,0,0,1,47.9,34.824L14.367,3.585a2.871,2.871,0,0,1-1.184,1.669M11.589,0a2.869,2.869,0,0,0-1.91,5.01l.589-3.469c0-.019.015-.034.019-.052a.949.949,0,0,1,.034-.126c.007-.017.019-.032.028-.049s.009-.015.013-.023a.811.811,0,0,1,.046-.081.775.775,0,0,1,.073-.09c.01-.011.014-.026.025-.037s.029-.016.042-.027l.008-.007c.017-.014.03-.033.047-.046a.947.947,0,0,1,.12-.063c.026-.013.051-.03.079-.04l.023-.012a.108.108,0,0,1,.023,0,.73.73,0,0,1,.093-.018.841.841,0,0,1,.132-.022c.018,0,.034,0,.053.006l.02,0a.125.125,0,0,0,.025,0l.027,0c.016,0,.028.012.043.015a.886.886,0,0,1,.11.026.683.683,0,0,1,.086.037l.022.009c.018.008.038.014.055.023a.713.713,0,0,1,.1.078c.016.013.035.017.051.031l2.7,2.518A2.871,2.871,0,0,0,11.589,0Z" transform="translate(0 0.001)" fill="#c8ab5f"/>
    </clipPath>
  </defs>
  <g id="Group_454" data-name="Group 454" transform="matrix(0.899, -0.438, 0.438, 0.899, 0, 29.131)">
    <g id="Group_453" data-name="Group 453" transform="translate(0 -0.001)" clip-path="url(#clip-path)">
      <rect id="Rectangle_238" data-name="Rectangle 238" width="141.057" height="141.057" transform="translate(-66.517 66.517) rotate(-45)" fill="#c8ab5f"/>
    </g>
  </g>
</svg>
