<svg id="Group_482" data-name="Group 482" xmlns="http://www.w3.org/2000/svg" xmlns:xlink="http://www.w3.org/1999/xlink" width="120.403" height="117.55" viewBox="0 0 120.403 117.55">
  <defs>
    <clipPath id="clip-path">
      <path id="Path_278" data-name="Path 278" d="M55.394,113.03a4.52,4.52,0,1,0,7.686-3.225L60.8,113.1s-.007.007-.01.012l-.006.007c-.008.011-.016.023-.025.032a.747.747,0,0,1-.078.082l-.006.006-.006,0a.725.725,0,0,1-.1.071.1.1,0,0,1-.012.008l-.019.01-.021.011-.034.015a.619.619,0,0,1-.058.022l-.037.013-.023.006-.012,0-.036.007-.027.006a.892.892,0,0,1-.1.007h0a.89.89,0,0,1-.1-.007l-.027-.006-.036-.007-.012,0-.023-.006-.037-.013-.058-.022-.033-.015-.02-.011a.155.155,0,0,1-.02-.01.069.069,0,0,1-.013-.008.718.718,0,0,1-.1-.071l-.006,0-.006-.006a.839.839,0,0,1-.079-.082c-.008-.01-.016-.022-.024-.032l0-.007a.155.155,0,0,1-.011-.012l-2.487-3.583a4.512,4.512,0,0,0-1.682,3.518m3.731-4.451,1.055,2.293,1-2.18a4.548,4.548,0,0,0-2.058-.112M29.865,44.985l.275.6a2.217,2.217,0,0,0,.639-.6Zm59.036,0a2.244,2.244,0,0,0,.925,1.455l.669-1.455Zm3.35-.222L91.3,46.84A2.247,2.247,0,0,0,93.36,44.6a2.287,2.287,0,0,0-.047-.462ZM28.623,45.88l-.514-1.116-1.313-.77a2.208,2.208,0,0,0,1.827,1.887m2.556-2.4a2.167,2.167,0,0,1,.011.218,2.2,2.2,0,0,1-.411,1.284H88.9a2.248,2.248,0,0,1,.264-1.5Zm57.986,0h1.419l-.355-.948a2.261,2.261,0,0,0-1.064.948m2.892-.349.473-.277a2.24,2.24,0,0,0-.725-.394Zm-62.281.349h1.4a2.2,2.2,0,0,0-.834-1.518Zm-2.618-1.02,1.145.671.614-1.638a2.205,2.205,0,0,0-1.759.967m65.372.394a2.248,2.248,0,0,1,.783,1.282l22.764-13.355L64.433,105.222,85.949,58.458,91.3,46.84c-.06,0-.12.007-.181.007a2.233,2.233,0,0,1-1.289-.407L61.183,108.692a4.518,4.518,0,0,1,1.9,1.114L117.7,31.078h-.013a2.715,2.715,0,0,1-2.45-1.544ZM2.658,31.078l54.418,78.434a4.5,4.5,0,0,1,2.048-.933l-28.985-63a2.218,2.218,0,0,1-1.516.3l5.788,12.579,21.515,46.763L4.281,30.784,26.8,43.993a2.164,2.164,0,0,1-.019-.291,2.2,2.2,0,0,1,.381-1.238L5.069,29.5a2.648,2.648,0,0,1-2.411,1.574m.165-2.892L5.069,29.5a2.65,2.65,0,0,0-.848-3.2Zm112.15.177a2.706,2.706,0,0,0,.265,1.171l2.3-1.348-1.478-2a2.713,2.713,0,0,0-1.085,2.172M0,28.43a2.648,2.648,0,0,0,2.648,2.648h.01L1.105,28.839a.691.691,0,0,1-.068-.121.187.187,0,0,1-.011-.03.734.734,0,0,1-.035-.108c0-.006,0-.011-.006-.018s0-.019,0-.029a.826.826,0,0,1-.011-.1c0-.016,0-.031,0-.047a.746.746,0,0,1,.012-.112c0-.01,0-.02.006-.03a.66.66,0,0,1,.045-.137c0-.01.011-.019.015-.028a.753.753,0,0,1,.057-.1l.01-.016,1.617-2.181c-.029,0-.058,0-.087,0A2.648,2.648,0,0,0,0,28.43m117.528-2.777,1.713,2.311c0,.006.006.011.01.016a.858.858,0,0,1,.057.1l.015.028a.773.773,0,0,1,.045.137c0,.01,0,.02,0,.03a.747.747,0,0,1,.013.112.454.454,0,0,1,0,.047.69.69,0,0,1-.01.1.177.177,0,0,1,0,.029.152.152,0,0,0-.006.018.649.649,0,0,1-.035.108c0,.011-.006.02-.011.03a.747.747,0,0,1-.068.121L117.7,31.078a2.715,2.715,0,0,0-.013-5.43q-.081,0-.16,0M28.917,41.5h.067a2.2,2.2,0,0,1,1.361.47l6.92-18.478a3.094,3.094,0,0,1-1.431-.459ZM83.144,23.623l7.085,18.912a2.256,2.256,0,0,1,1.576-.073L84.491,22.939a2.993,2.993,0,0,1-1.347.684M38.023,21.467l-.757,2.021c.069,0,.137.006.207.006a3.111,3.111,0,0,0,2.917-2.027Zm41.569,0a3.014,3.014,0,0,0,3.553,2.156l-.808-2.156Zm4.217-.349.682,1.821A3,3,0,0,0,85.51,20.68a2.942,2.942,0,0,0-.015-.306Zm-49.447-.733a3.108,3.108,0,0,0,1.473,2.644l.715-1.911-2.18-.96c-.006.074-.008.15-.008.226m6.193-.42a3.119,3.119,0,0,1-.166,1.5h39.2a3.024,3.024,0,0,1-.019-1.5Zm39.018,0H82.7l2.274-1a3.012,3.012,0,0,0-5.4,1M34.841,18.724l2.82,1.241h2.894a3.111,3.111,0,0,0-5.714-1.241M2.736,25.784a2.631,2.631,0,0,1,1.486.517l9.869-13.315a2.276,2.276,0,0,1-1.054-1.1ZM106.2,12.89l9.859,13.3a2.7,2.7,0,0,1,1.47-.538l-10.362-13.98a2.278,2.278,0,0,1-.967,1.217m-92.108.1a2.271,2.271,0,0,0,2.738-.55l-1.757-.774Zm89.268-.474a2.269,2.269,0,0,0,2.84.378l-.91-1.228ZM84.974,18.964a2.986,2.986,0,0,1,.521,1.411L96.58,15.5l6.779-2.984a2.259,2.259,0,0,1-.611-1.372ZM16.829,12.436,23.78,15.5l10.59,4.662a3.1,3.1,0,0,1,.471-1.434L17.377,11.037a2.259,2.259,0,0,1-.548,1.4m-.14-1.7.688.3c0-.027,0-.055,0-.082a2.258,2.258,0,0,0-.055-.5Zm86.051.221c0,.062,0,.124.008.186l.922-.407-.851-.375a2.264,2.264,0,0,0-.079.6m-89.9,0a2.257,2.257,0,0,0,.2.932l1.185-1.6c.006-.007.011-.012.016-.018a.764.764,0,0,1,.053-.061l.03-.029a.745.745,0,0,1,.063-.05c.011-.008.02-.016.032-.023a.848.848,0,0,1,.08-.044l.023-.013h0l1.99-.877a2.271,2.271,0,0,0-3.676,1.784M103.695,9.1l2.142.943h0l.029.015a.852.852,0,0,1,.075.042c.011.007.023.016.034.025s.04.031.06.048l.032.031c.019.019.036.04.053.06s.011.011.015.019l1.028,1.386a2.271,2.271,0,0,0-3.471-2.57M37.5,0a.749.749,0,0,0-.3.064L16.513,9.17a2.27,2.27,0,0,1,.81,1.284L37.661,1.5H82.7l20.119,8.856a2.272,2.272,0,0,1,.875-1.255L83.16.064a.746.746,0,0,0-.3-.064Z" transform="translate(0 0)" fill="#c8ab5f"/>
    </clipPath>
  </defs>
  <g id="Group_481" data-name="Group 481" transform="translate(0 0)" clip-path="url(#clip-path)">
    <rect id="Rectangle_272" data-name="Rectangle 272" width="168.258" height="168.259" transform="translate(-58.775 58.775) rotate(-45)" fill="#c8ab5f"/>
  </g>
</svg>
