<svg id="Group_469" data-name="Group 469" xmlns="http://www.w3.org/2000/svg" xmlns:xlink="http://www.w3.org/1999/xlink" width="178.532" height="93.486" viewBox="0 0 178.532 93.486">
  <defs>
    <clipPath id="clip-path">
      <path id="Path_254" data-name="Path 254" d="M85.544,90.5a5.248,5.248,0,0,0,9.215.464H90.387a.971.971,0,0,1-.209-.025c-.018,0-.035-.008-.052-.012a.978.978,0,0,1-.192-.07l-.008,0,0,0-.029-.017a1.111,1.111,0,0,1-.1-.061c-.015-.011-.027-.023-.042-.034a.716.716,0,0,1-.073-.063.571.571,0,0,1-.042-.043c-.02-.022-.04-.044-.058-.068a.6.6,0,0,1-.037-.051l-.011-.016Zm9.936-1.586a5.221,5.221,0,0,1-.721,2.05h42.015a3.4,3.4,0,0,1-.8-2.05Zm45.143,1.691c-.007.009-.017.015-.025.024a1.215,1.215,0,0,1-.1.092c-.02.017-.04.035-.061.05a1.134,1.134,0,0,1-.121.072c-.021.01-.039.023-.06.033a1.155,1.155,0,0,1-.157.052c-.014,0-.029.01-.043.013a1,1,0,0,1-.214.023h-3.07a3.421,3.421,0,0,0,5.974-2.846ZM93.492,88.919H95.48a5.429,5.429,0,0,0,.043-.679,5.315,5.315,0,0,0-.058-.783Zm-8.461-.679c0,.072,0,.144,0,.215h2.248L85.2,86.912a5.237,5.237,0,0,0-.17,1.328m55.838-1.073.8-.942a3.408,3.408,0,0,0-.8-.54Zm-4.9,1.6c0,.051,0,.1,0,.151h2.846V85.4a3.419,3.419,0,0,0-2.849,3.371M94.24,85.813l.484-.358c-.042-.067-.085-.132-.13-.2Zm-8.121-.772.416.308-.294-.46c-.041.05-.082.1-.122.152m5.293,1.393,1.675-2.625a5.2,5.2,0,0,0-1.675-.692Zm-3.567-2.843,1.518,2.378v-2.9a5.2,5.2,0,0,0-1.518.518M138.82,85.4a3.347,3.347,0,0,1,.57-.048,3.408,3.408,0,0,1,1.479.336V57.278a4.267,4.267,0,0,1-.663.051,4.208,4.208,0,0,1-1.386-.232Zm-1.351-29.07a4.229,4.229,0,0,0,1.351.77V55.326Zm-95.514-.28a4.079,4.079,0,0,0,.882-.531l-.882-.654ZM94.724,85.455a5.211,5.211,0,0,1,.741,2l42-31.13a4.255,4.255,0,0,1-1.2-1.664ZM42.837,55.516,85.2,86.912a5.234,5.234,0,0,1,.918-1.871L44.07,53.878a4.053,4.053,0,0,1-1.233,1.638m98.032-1.383v3.145a4.237,4.237,0,0,0,3.558-3.846ZM39.906,56.364V53.67l-3.562-.7a4.039,4.039,0,0,0,3.562,3.4M135.971,53.1a4.232,4.232,0,0,0,.3,1.568l2.018-1.5L136.4,51.235a4.219,4.219,0,0,0-.429,1.86M42.485,52.7l1.585,1.175a4.053,4.053,0,0,0,.071-2.868Zm95.243-3.042,1.092,1.115V49.093a4.185,4.185,0,0,0-1.092.568m3.141,2.383,3.222-.635a4.239,4.239,0,0,0-3.222-2.5ZM41.955,50.313l1-1.028a4.04,4.04,0,0,0-1-.632Zm-5.4.607,3.349.66V48.336a4.04,4.04,0,0,0-3.349,2.584M5.079,49.1,40.152,90.146c.007.009.017.015.025.024a1.046,1.046,0,0,0,.1.091l.061.052a1.038,1.038,0,0,0,.121.071c.021.01.039.023.06.033a.929.929,0,0,0,.157.051.31.31,0,0,0,.043.014,1,1,0,0,0,.214.023H85.544a5.237,5.237,0,0,1-.509-2.05H41.955V56.047a4.071,4.071,0,0,1-2.049.317V86.7L6.769,47.922A3.827,3.827,0,0,1,5.079,49.1m1.69-1.179a3.8,3.8,0,0,0,.456-.695l-1.263-.249Zm.872-2.43a3.8,3.8,0,0,1-.416,1.735l29.119,5.741a4.07,4.07,0,0,1,.213-2.048l-28.926-5.7c.007.091.01.182.01.274m169.668-.63-33.218,6.547a4.21,4.21,0,0,1,.349,1.686c0,.113,0,.226-.013.337l30.386-5.989L141.674,86.225a3.419,3.419,0,0,1,1.074,1.9l35.538-41.59a1.026,1.026,0,0,0,.246-.65v-.032a1.018,1.018,0,0,0-.139-.5,1.021,1.021,0,0,0-1.084-.488M0,45.492A3.824,3.824,0,0,0,5.079,49.1L2.488,46.069A1.025,1.025,0,0,1,3.466,44.4l4.165.821A3.82,3.82,0,0,0,0,45.492m42.96,3.793a4.043,4.043,0,0,1,1.181,1.725l9.131-9.337a4.252,4.252,0,0,1-1.213-1.692Zm15.724-7.57L86.241,84.889a5.258,5.258,0,0,1,1.6-1.3L59.97,39.922a4.236,4.236,0,0,1-1.286,1.793m66.663-1.783,11.053,11.3a4.255,4.255,0,0,1,1.328-1.574L127.3,39a3.505,3.505,0,0,1-1.952.935m-1.7-.188a3.53,3.53,0,0,0,1.7.188l-1.1-1.126ZM93.087,83.809a5.268,5.268,0,0,1,1.507,1.449l29.052-45.514a3.534,3.534,0,0,1-1.635-1.248ZM53.272,41.673a4.236,4.236,0,0,0,5.412.042L56.53,38.341Zm68.075-5.236a3.507,3.507,0,0,0,.664,2.059l.762-1.195-1.383-1.415a3.563,3.563,0,0,0-.043.551M58,36.837l1.969,3.085a4.24,4.24,0,0,0-.792-4.288Zm-6.232,1.6a4.23,4.23,0,0,0,.29,1.544L55.4,36.567l-1.24-1.942a4.235,4.235,0,0,0-2.389,3.812m5.1-3.374.591-.6a4.215,4.215,0,0,0-1.133-.245Zm68.508,1.969L127.3,39a3.527,3.527,0,0,0,.057-5.065Zm-3.008-3.077,1.537,1.572,1.63-2.554a3.534,3.534,0,0,0-3.167.982M138.981,11.91,125.536,32.973a3.511,3.511,0,0,1,1.82.959L138.82,15.973v33.12a4.208,4.208,0,0,1,1.386-.233,4.267,4.267,0,0,1,.663.052V12.462a1.024,1.024,0,0,0-1.888-.552m-98.338-.9a1.025,1.025,0,0,0-.737.983V48.336a4.026,4.026,0,0,1,2.049.317V15.508l12.2,19.117A4.212,4.212,0,0,1,56,34.2q.164,0,.324.012L41.794,11.446a1.02,1.02,0,0,0-1.151-.432m48.72,72.059a5.294,5.294,0,0,1,.914-.079,5.236,5.236,0,0,1,1.135.123V7.812c-.073,0-.146.006-.22.006a3.886,3.886,0,0,1-1.829-.454Zm3.96-75.887,28.067,28.7a3.509,3.509,0,0,1,.979-1.931L94.691,5.654a3.925,3.925,0,0,1-1.368,1.532m-1.911.626a3.894,3.894,0,0,0,1.911-.626L91.412,5.232ZM88,6.164a3.931,3.931,0,0,0,1.365,1.2V4.769ZM57.46,34.459a4.251,4.251,0,0,1,1.718,1.175L88,6.164a3.892,3.892,0,0,1-.715-2.2ZM91.192,0a3.909,3.909,0,0,0-3.909,3.909v.053l2.371-2.425a1.025,1.025,0,0,1,1.758.718V2.3l3.279,3.353A3.911,3.911,0,0,0,91.192,0Z" fill="#c8ab5f"/>
    </clipPath>
  </defs>
  <g id="Group_468" data-name="Group 468" clip-path="url(#clip-path)">
    <rect id="Rectangle_255" data-name="Rectangle 255" width="192.346" height="192.346" transform="translate(-46.743 46.743) rotate(-45)" fill="#c8ab5f"/>
  </g>
</svg>
